<?xml version="1.0" ?><!DOCTYPE svg  PUBLIC '-//W3C//DTD SVG 1.1//EN'  'http://www.w3.org/Graphics/SVG/1.1/DTD/svg11.dtd'><svg height="512px" style="enable-background:new 0 0 512 512;" version="1.1" viewBox="0 0 512 512" width="512px" xml:space="preserve" xmlns="http://www.w3.org/2000/svg" xmlns:xlink="http://www.w3.org/1999/xlink"><g id="mill_pinwheel_wind_windmill_paper_toy"><path d="M469.5,256c0,0-42.701-128.1-128.1-128.1c-42.7,0-69.388,10.675-85.4,21.35V42.5c0,0-128.1,42.701-128.1,128.1   c0,42.701,10.675,69.389,21.351,85.401H42.5c0,0,42.701,128.1,128.1,128.1c42.7,0,69.388-10.675,85.4-21.351V469.5   c0,0,128.101-42.701,128.101-128.1c0-42.701-10.676-69.389-21.352-85.4H469.5z M376.954,166.844   c1.478,0.142,2.96,0.449,4.442,0.896c-1.994,0.155-3.889,1.572-4.072,4.321c0.124,5.929,8.78,6.132,8.901-0.027   c-0.081-1.249-0.546-2.214-1.207-2.924c13.852,6.292,27.516,24.119,37.965,40.584c-1.866,0.283-3.561,1.701-3.733,4.294   c0.101,4.833,5.867,5.858,8.063,2.738c1.106,1.849,2.162,3.652,3.163,5.392c-0.401,0.636-0.682,1.408-0.744,2.353   c0.063,3.035,2.362,4.558,4.608,4.506c1.151,2.084,2.188,3.995,3.094,5.672h-9.326c-0.609-5.328-8.165-5.433-8.811,0h-12.152   c-0.609-5.328-8.165-5.433-8.812,0h-12.15c-0.609-5.328-8.165-5.433-8.812,0H365.22c-0.609-5.328-8.165-5.433-8.812,0h-12.15   c-0.609-5.328-8.165-5.433-8.812,0h-12.151c-0.609-5.328-8.166-5.433-8.812,0h-0.395c1.254-4.725,2.781-10.282,4.706-16.151   c2.226,0.066,4.481-1.414,4.543-4.538c-0.102-1.562-0.792-2.69-1.737-3.408C330.611,186.884,346.564,161.941,376.954,166.844z    M256,177.209c28.237-31.24,86.813-27.946,87.517-27.921c-25.28,12.635-39.809,45.62-47.591,71.344   c-9.786-11.034-24.054-18.007-39.926-18.007V177.209z M166.844,135.045c0.144-1.488,0.453-2.98,0.905-4.474   c0.545,5.481,8.733,5.533,8.852-0.465c-0.281-4.331-5.017-5.436-7.468-3.176c6.315-13.84,24.131-27.489,40.582-37.927   c0.856,5.124,8.695,5.04,8.811-0.824c-0.104-1.612-0.837-2.762-1.829-3.474c1.859-1.113,3.673-2.174,5.422-3.181   c2.601,1.654,6.806,0.455,6.89-3.827c-0.001-0.018-0.006-0.032-0.008-0.05c2.076-1.146,3.979-2.179,5.65-3.082v9.32   c-1.992,0.159-3.882,1.576-4.064,4.321c0.059,2.788,2.007,4.292,4.064,4.481v12.161c-1.992,0.159-3.882,1.575-4.064,4.32   c0.059,2.789,2.007,4.293,4.064,4.482v12.162c-1.992,0.159-3.882,1.575-4.064,4.32c0.059,2.789,2.007,4.293,4.064,4.482v12.161   c-1.992,0.159-3.882,1.576-4.064,4.321c0.059,2.788,2.007,4.292,4.064,4.481v12.162c-1.992,0.158-3.882,1.575-4.064,4.32   c0.059,2.789,2.007,4.292,4.064,4.482v12.162c-1.992,0.159-3.882,1.576-4.064,4.321c0.059,2.788,2.007,4.292,4.064,4.481v0.404   c-4.725-1.253-10.28-2.781-16.147-4.704c0.004-0.072,0.021-0.134,0.022-0.208c-0.303-4.661-5.767-5.591-7.987-2.605   C186.873,181.381,161.942,165.429,166.844,135.045z M149.288,168.483c12.636,25.281,45.62,39.81,71.344,47.592   c-11.034,9.786-18.007,24.054-18.007,39.925H177.21C145.97,227.763,149.264,169.187,149.288,168.483z M135.046,345.156   c-1.477-0.143-2.958-0.448-4.439-0.896c2.061-0.145,4.013-1.616,4.069-4.518c-0.371-5.717-8.513-5.826-8.901,0.027   c0.028,1.341,0.506,2.372,1.209,3.12c-13.853-6.291-27.517-24.117-37.966-40.583c1.932-0.276,3.679-1.749,3.732-4.491   c-0.306-4.706-5.867-5.603-8.044-2.511c-1.107-1.851-2.164-3.655-3.166-5.396c0.429-0.683,0.709-1.529,0.729-2.575   c-0.19-2.934-2.425-4.379-4.609-4.312c-1.151-2.085-2.188-3.995-3.094-5.672h9.337c0.558,5.285,8.227,5.462,8.792,0h12.17   c0.56,5.285,8.229,5.462,8.794,0h12.169c0.558,5.285,8.228,5.462,8.793,0h12.169c0.56,5.285,8.229,5.462,8.794,0h12.169   c0.559,5.285,8.228,5.462,8.793,0h12.17c0.559,5.285,8.228,5.462,8.793,0h0.402c-1.254,4.725-2.781,10.28-4.705,16.148   c-2.159-0.05-4.347,1.378-4.544,4.345c0.035,1.655,0.746,2.848,1.74,3.596C181.391,325.111,165.438,350.06,135.046,345.156z    M256,334.791c-28.237,31.24-86.813,27.945-87.517,27.922c25.276-12.634,39.809-45.618,47.593-71.342   c9.786,11.032,24.053,18.004,39.924,18.004V334.791z M223.976,256c0-17.658,14.365-32.025,32.024-32.025   c17.66,0,32.025,14.367,32.025,32.025c0,17.66-14.365,32.025-32.025,32.025C238.341,288.025,223.976,273.66,223.976,256z    M345.156,376.955c-0.143,1.479-0.449,2.961-0.897,4.444c-0.617-5.435-8.477-5.456-8.86,0.299c0.094,4.423,4.933,5.654,7.436,3.438   c-6.342,13.818-24.126,27.44-40.552,37.861c-0.895-5.101-8.433-5.007-8.809,0.628c0.036,1.708,0.791,2.924,1.835,3.666   c-1.86,1.113-3.675,2.175-5.425,3.183c-2.545-1.632-6.617-0.469-6.891,3.632c0.002,0.083,0.021,0.153,0.027,0.234   c-2.084,1.151-3.993,2.187-5.67,3.093v-9.318c2.058-0.148,4.006-1.619,4.063-4.517c-0.174-2.688-2.067-4.118-4.063-4.291V407.15   c2.058-0.147,4.006-1.619,4.063-4.517c-0.174-2.687-2.067-4.118-4.063-4.29v-12.156c2.058-0.148,4.006-1.62,4.063-4.518   c-0.174-2.687-2.067-4.118-4.063-4.29v-12.156c2.058-0.147,4.006-1.619,4.063-4.517c-0.174-2.688-2.067-4.118-4.063-4.291V344.26   c2.058-0.147,4.006-1.619,4.063-4.517c-0.174-2.688-2.067-4.118-4.063-4.291v-12.157c2.058-0.147,4.006-1.619,4.063-4.517   c-0.174-2.687-2.067-4.118-4.063-4.29v-0.398c4.718,1.252,10.266,2.777,16.126,4.697c0,0.007-0.002,0.012-0.003,0.019   c0.102,4.794,5.776,5.84,8.011,2.811C325.143,330.63,350.056,346.581,345.156,376.955z M362.712,343.518   c-12.634-25.277-45.618-39.81-71.342-47.594c11.033-9.785,18.005-24.052,18.005-39.923h25.416   C366.031,284.237,362.736,342.814,362.712,343.518z M199.144,98.689c0.39-5.854,8.53-5.745,8.901-0.028   C207.924,104.819,199.268,104.616,199.144,98.689z M220.105,98.689c0.39-5.854,8.531-5.745,8.902-0.028   C228.887,104.819,220.229,104.616,220.105,98.689z M188.662,109.169c0.39-5.852,8.53-5.743,8.901-0.026   C197.442,115.302,188.786,115.099,188.662,109.169z M209.624,109.169c0.39-5.852,8.53-5.743,8.901-0.026   C218.404,115.302,209.748,115.099,209.624,109.169z M178.181,119.652c0.39-5.853,8.531-5.744,8.902-0.028   C186.962,125.783,178.305,125.58,178.181,119.652z M199.144,119.652c0.39-5.853,8.53-5.744,8.901-0.028   C207.924,125.783,199.268,125.58,199.144,119.652z M220.105,119.652c0.39-5.853,8.531-5.744,8.902-0.028   C228.887,125.783,220.229,125.58,220.105,119.652z M188.662,130.134c0.39-5.853,8.53-5.744,8.901-0.027   C197.442,136.266,188.786,136.063,188.662,130.134z M209.624,130.134c0.39-5.853,8.53-5.744,8.901-0.027   C218.404,136.266,209.748,136.063,209.624,130.134z M178.181,140.616c0.39-5.854,8.531-5.744,8.902-0.028   C186.962,146.748,178.305,146.543,178.181,140.616z M199.144,140.616c0.39-5.854,8.53-5.744,8.901-0.028   C207.924,146.748,199.268,146.543,199.144,140.616z M220.105,140.616c0.39-5.854,8.531-5.744,8.902-0.028   C228.887,146.748,220.229,146.543,220.105,140.616z M176.601,151.07c-0.121,6.159-8.777,5.956-8.901,0.027   C168.089,145.244,176.229,145.354,176.601,151.07z M188.662,151.098c0.39-5.854,8.53-5.744,8.901-0.027   C197.442,157.229,188.786,157.026,188.662,151.098z M209.624,151.098c0.39-5.854,8.53-5.744,8.901-0.027   C218.404,157.229,209.748,157.026,209.624,151.098z M178.181,161.58c0.39-5.854,8.531-5.744,8.902-0.027   C186.962,167.71,178.305,167.507,178.181,161.58z M199.144,161.58c0.39-5.854,8.53-5.744,8.901-0.027   C207.924,167.71,199.268,167.507,199.144,161.58z M220.105,161.58c0.39-5.854,8.531-5.744,8.902-0.027   C228.887,167.71,220.229,167.507,220.105,161.58z M188.662,172.061c0.39-5.853,8.53-5.743,8.901-0.027   C197.442,178.193,188.786,177.99,188.662,172.061z M209.624,172.061c0.39-5.853,8.53-5.743,8.901-0.027   C218.404,178.193,209.748,177.99,209.624,172.061z M356.36,172.061c0.391-5.853,8.531-5.743,8.902-0.027   C365.142,178.193,356.485,177.99,356.36,172.061z M199.144,182.543c0.39-5.854,8.53-5.744,8.901-0.027   C207.924,188.675,199.268,188.472,199.144,182.543z M220.105,182.543c0.39-5.854,8.531-5.744,8.902-0.027   C228.887,188.675,220.229,188.472,220.105,182.543z M345.88,182.543c0.391-5.854,8.531-5.744,8.902-0.027   C354.661,188.675,346.005,188.472,345.88,182.543z M366.843,182.543c0.39-5.854,8.531-5.744,8.902-0.027   C375.624,188.675,366.967,188.472,366.843,182.543z M387.806,182.543c0.39-5.854,8.53-5.744,8.901-0.027   C396.586,188.675,387.93,188.472,387.806,182.543z M344.301,192.999c-0.121,6.158-8.777,5.955-8.902,0.027   C335.789,187.172,343.93,187.282,344.301,192.999z M356.36,193.026c0.391-5.854,8.531-5.744,8.902-0.027   C365.142,199.157,356.485,198.954,356.36,193.026z M377.324,193.026c0.39-5.854,8.53-5.744,8.901-0.027   C386.104,199.157,377.448,198.954,377.324,193.026z M398.286,193.026c0.39-5.854,8.53-5.744,8.901-0.027   C407.066,199.157,398.41,198.954,398.286,193.026z M333.82,203.479c-0.121,6.159-8.777,5.956-8.902,0.027   C325.309,197.654,333.449,197.763,333.82,203.479z M345.88,203.506c0.391-5.853,8.531-5.743,8.902-0.027   C354.661,209.638,346.005,209.435,345.88,203.506z M366.843,203.506c0.39-5.853,8.531-5.743,8.902-0.027   C375.624,209.638,366.967,209.435,366.843,203.506z M387.806,203.506c0.39-5.853,8.53-5.743,8.901-0.027   C396.586,209.638,387.93,209.435,387.806,203.506z M408.769,203.506c0.389-5.853,8.53-5.743,8.901-0.027   C417.549,209.638,408.892,209.435,408.769,203.506z M344.301,213.961c-0.121,6.159-8.777,5.956-8.902,0.027   C335.789,208.135,343.93,208.245,344.301,213.961z M356.36,213.989c0.391-5.854,8.531-5.744,8.902-0.027   C365.142,220.121,356.485,219.917,356.36,213.989z M377.324,213.989c0.39-5.854,8.53-5.744,8.901-0.027   C386.104,220.121,377.448,219.917,377.324,213.989z M398.286,213.989c0.39-5.854,8.53-5.744,8.901-0.027   C407.066,220.121,398.41,219.917,398.286,213.989z M333.82,224.444c-0.121,6.158-8.777,5.955-8.902,0.027   C325.309,218.618,333.449,218.727,333.82,224.444z M345.88,224.471c0.391-5.854,8.531-5.744,8.902-0.027   C354.661,230.602,346.005,230.399,345.88,224.471z M366.843,224.471c0.39-5.854,8.531-5.744,8.902-0.027   C375.624,230.602,366.967,230.399,366.843,224.471z M387.806,224.471c0.39-5.854,8.53-5.744,8.901-0.027   C396.586,230.602,387.93,230.399,387.806,224.471z M408.769,224.471c0.389-5.854,8.53-5.744,8.901-0.027   C417.549,230.602,408.892,230.399,408.769,224.471z M103.233,287.334c-0.121,6.159-8.777,5.956-8.902,0.027   C94.722,281.508,102.862,281.617,103.233,287.334z M124.194,287.334c-0.121,6.159-8.777,5.956-8.9,0.027   C115.683,281.508,123.823,281.617,124.194,287.334z M145.158,287.334c-0.121,6.159-8.777,5.956-8.902,0.027   C136.646,281.508,144.787,281.617,145.158,287.334z M166.12,287.334c-0.121,6.159-8.777,5.956-8.901,0.027   C157.608,281.508,165.749,281.617,166.12,287.334z M178.181,287.361c0.39-5.854,8.531-5.744,8.902-0.027   C186.962,293.493,178.305,293.29,178.181,287.361z M113.714,297.816c-0.121,6.158-8.777,5.955-8.902,0.027   C105.202,291.99,113.343,292.1,113.714,297.816z M134.676,297.816c-0.121,6.158-8.778,5.955-8.901,0.027   C126.163,291.99,134.305,292.1,134.676,297.816z M155.639,297.816c-0.121,6.158-8.777,5.955-8.902,0.027   C147.127,291.99,155.268,292.1,155.639,297.816z M167.699,297.844c0.39-5.854,8.53-5.744,8.901-0.027   C176.479,303.975,167.823,303.771,167.699,297.844z M103.233,308.298c-0.121,6.158-8.777,5.955-8.902,0.027   C94.722,302.472,102.862,302.581,103.233,308.298z M124.194,308.298c-0.121,6.158-8.777,5.955-8.9,0.027   C115.683,302.472,123.823,302.581,124.194,308.298z M145.158,308.298c-0.121,6.158-8.777,5.955-8.902,0.027   C136.646,302.472,144.787,302.581,145.158,308.298z M166.12,308.298c-0.121,6.158-8.777,5.955-8.901,0.027   C157.608,302.472,165.749,302.581,166.12,308.298z M178.181,308.325c0.39-5.854,8.531-5.744,8.902-0.027   C186.962,314.456,178.305,314.253,178.181,308.325z M113.714,318.778c-0.121,6.159-8.777,5.956-8.902,0.027   C105.202,312.953,113.343,313.063,113.714,318.778z M134.676,318.778c-0.121,6.159-8.778,5.956-8.901,0.027   C126.163,312.953,134.305,313.063,134.676,318.778z M155.639,318.778c-0.121,6.159-8.777,5.956-8.902,0.027   C147.127,312.953,155.268,313.063,155.639,318.778z M167.699,318.806c0.39-5.853,8.53-5.743,8.901-0.027   C176.479,324.938,167.823,324.734,167.699,318.806z M124.194,329.261c-0.121,6.159-8.777,5.956-8.9,0.027   C115.683,323.436,123.823,323.545,124.194,329.261z M145.158,329.261c-0.121,6.159-8.777,5.956-8.902,0.027   C136.646,323.436,144.787,323.545,145.158,329.261z M166.12,329.261c-0.121,6.159-8.777,5.956-8.901,0.027   C157.608,323.436,165.749,323.545,166.12,329.261z M291.896,329.261c-0.121,6.159-8.777,5.956-8.902,0.027   C283.384,323.436,291.524,323.545,291.896,329.261z M312.856,329.261c-0.121,6.159-8.777,5.956-8.9,0.027   C304.345,323.436,312.485,323.545,312.856,329.261z M155.639,339.743c-0.121,6.159-8.777,5.956-8.902,0.027   C147.127,333.917,155.268,334.026,155.639,339.743z M302.376,339.743c-0.121,6.159-8.777,5.956-8.902,0.027   C293.864,333.917,302.005,334.026,302.376,339.743z M323.338,339.743c-0.121,6.159-8.778,5.956-8.901,0.027   C314.825,333.917,322.967,334.026,323.338,339.743z M291.896,350.225c-0.121,6.159-8.777,5.956-8.902,0.027   C283.384,344.399,291.524,344.509,291.896,350.225z M312.856,350.225c-0.121,6.159-8.777,5.956-8.9,0.027   C304.345,344.399,312.485,344.509,312.856,350.225z M333.82,350.225c-0.121,6.159-8.777,5.956-8.902,0.027   C325.309,344.399,333.449,344.509,333.82,350.225z M302.376,360.707c-0.121,6.159-8.777,5.956-8.902,0.027   C293.864,354.881,302.005,354.99,302.376,360.707z M323.338,360.707c-0.121,6.159-8.778,5.956-8.901,0.027   C314.825,354.881,322.967,354.99,323.338,360.707z M335.398,360.734c0.391-5.854,8.531-5.744,8.902-0.027   C344.18,366.866,335.523,366.663,335.398,360.734z M291.896,371.189c-0.121,6.158-8.777,5.955-8.902,0.027   C283.384,365.363,291.524,365.473,291.896,371.189z M312.856,371.189c-0.121,6.158-8.777,5.955-8.9,0.027   C304.345,365.363,312.485,365.473,312.856,371.189z M333.82,371.189c-0.121,6.158-8.777,5.955-8.902,0.027   C325.309,365.363,333.449,365.473,333.82,371.189z M302.376,381.67c-0.121,6.159-8.777,5.956-8.902,0.028   C293.864,375.845,302.005,375.954,302.376,381.67z M323.338,381.67c-0.121,6.159-8.778,5.956-8.901,0.028   C314.825,375.845,322.967,375.954,323.338,381.67z M291.896,392.152c-0.121,6.159-8.777,5.956-8.902,0.027   C283.384,386.327,291.524,386.437,291.896,392.152z M312.856,392.152c-0.121,6.159-8.777,5.956-8.9,0.027   C304.345,386.327,312.485,386.437,312.856,392.152z M333.82,392.152c-0.121,6.159-8.777,5.956-8.902,0.027   C325.309,386.327,333.449,386.437,333.82,392.152z M302.376,402.634c-0.121,6.159-8.777,5.956-8.902,0.027   C293.864,396.809,302.005,396.918,302.376,402.634z M323.338,402.634c-0.121,6.159-8.778,5.956-8.901,0.027   C314.825,396.809,322.967,396.918,323.338,402.634z M291.896,413.116c-0.121,6.159-8.777,5.956-8.902,0.027   C283.384,407.29,291.524,407.399,291.896,413.116z M312.856,413.116c-0.121,6.159-8.777,5.956-8.9,0.027   C304.345,407.29,312.485,407.399,312.856,413.116z"/></g><g id="Capa_1"/></svg>