<?xml version="1.0" standalone="no"?>
<!DOCTYPE svg PUBLIC "-//W3C//DTD SVG 20010904//EN"
 "http://www.w3.org/TR/2001/REC-SVG-20010904/DTD/svg10.dtd">
<svg version="1.0" xmlns="http://www.w3.org/2000/svg"
 width="700.000000pt" height="700.000000pt" viewBox="0 0 700.000000 700.000000"
 preserveAspectRatio="xMidYMid meet">
<metadata>
Created by potrace 1.11, written by Peter Selinger 2001-2013
</metadata>
<g transform="translate(0.000000,700.000000) scale(0.100000,-0.100000)"
fill="#000000" stroke="none">
<path d="M3370 6369 c-345 -138 -701 -340 -960 -545 -76 -60 -310 -288 -350
-339 -163 -213 -265 -432 -297 -635 -9 -65 -10 -371 0 -482 27 -301 133 -648
257 -833 l20 -30 -729 -5 -729 -5 54 -135 c246 -614 622 -1134 1000 -1386 165
-110 347 -184 519 -211 63 -10 374 -10 480 1 304 29 590 114 804 239 l61 36 2
-729 3 -729 125 50 c266 107 523 242 753 396 495 332 778 703 852 1116 14 81
15 395 1 507 -4 25 -8 63 -11 85 -14 116 -49 268 -92 400 -28 88 -111 269
-149 325 l-24 35 729 5 730 5 -55 135 c-64 158 -181 402 -247 513 -26 43 -47
80 -47 83 0 11 -189 282 -250 359 -294 366 -630 587 -975 642 -63 10 -374 10
-480 -1 -310 -29 -628 -127 -827 -252 l-38 -24 -2 729 -3 730 -125 -50z m-184
-523 c-39 -32 -41 -70 -5 -100 27 -23 29 -29 29 -96 0 -67 -2 -74 -30 -100
-31 -29 -35 -55 -11 -84 7 -9 19 -16 26 -16 9 0 13 -24 14 -84 2 -75 0 -85
-17 -90 -29 -9 -44 -51 -30 -81 6 -13 19 -27 30 -30 16 -6 18 -17 18 -91 0
-65 -3 -84 -14 -84 -43 0 -51 -73 -12 -106 24 -21 26 -30 26 -97 0 -68 -2 -76
-24 -91 -14 -8 -27 -25 -31 -36 -8 -25 18 -70 40 -70 12 0 15 -17 15 -84 0
-74 -2 -85 -18 -91 -17 -5 -42 -43 -42 -64 0 -4 9 -17 20 -29 12 -12 19 -22
18 -22 -2 0 -46 13 -98 29 -78 23 -97 33 -108 54 -15 31 -57 45 -84 28 -16
-10 -28 -9 -63 5 l-44 17 30 28 c28 26 29 29 16 61 -12 29 -18 33 -53 33 -32
0 -41 -4 -52 -27 -10 -21 -10 -33 -2 -48 15 -28 9 -26 -73 21 -135 78 -225
155 -289 247 -36 52 -81 152 -69 152 5 0 11 -5 13 -12 6 -17 66 -14 85 4 21
22 20 68 -3 85 -23 16 -68 17 -82 1 -5 -7 -12 -22 -14 -33 -10 -44 -26 56 -23
137 4 73 23 165 24 116 2 -36 67 -50 93 -20 26 30 28 50 6 77 -17 22 -27 26
-49 21 -16 -3 -29 -3 -29 0 0 22 103 152 173 220 108 104 288 240 238 181 -14
-18 -6 -56 16 -73 43 -32 93 -6 93 50 0 38 -33 62 -71 51 -13 -4 3 12 36 34
48 33 61 38 68 26 12 -23 44 -36 71 -29 32 8 52 54 36 84 -10 18 -8 24 7 36
23 18 59 28 77 21 18 -7 66 29 66 48 0 8 17 23 38 34 l37 19 3 -56 c3 -49 0
-58 -22 -76z m1479 -903 c-34 -18 -125 -88 -170 -130 -158 -147 -331 -457
-426 -760 -11 -35 -22 -63 -24 -63 -3 0 -24 18 -47 41 -96 91 -246 168 -361
185 -21 3 -46 7 -55 9 -9 2 -32 4 -49 4 l-33 1 0 174 0 173 54 51 c95 90 218
162 371 217 193 70 410 107 653 112 113 3 116 2 87 -14z m500 -227 c11 -2 23
-5 28 -5 4 -1 -2 -10 -13 -21 -38 -38 -14 -100 39 -100 40 0 54 15 55 54 1 20
4 36 7 36 3 0 37 -22 75 -49 81 -56 193 -172 282 -288 53 -70 59 -81 37 -73
-68 26 -117 -54 -59 -99 27 -21 46 -19 77 8 14 11 17 24 13 45 -5 25 0 20 35
-29 35 -50 38 -60 25 -67 -44 -25 -42 -89 4 -108 21 -9 33 -9 50 0 12 6 23 10
24 8 37 -51 43 -65 35 -85 -9 -24 22 -73 47 -73 7 0 23 -18 34 -40 l20 -40
-65 0 c-51 0 -65 3 -65 15 0 20 -40 45 -65 40 -11 -2 -23 -4 -26 -4 -3 -1 -11
-12 -17 -26 -11 -24 -16 -25 -90 -25 -75 0 -79 1 -101 30 -17 24 -27 29 -49
25 -15 -2 -36 -16 -47 -30 -19 -23 -27 -25 -97 -25 -66 0 -77 3 -83 18 -7 23
-46 42 -73 35 -11 -2 -25 -16 -32 -29 -13 -22 -19 -24 -96 -24 -73 0 -82 2
-87 20 -12 45 -83 45 -107 0 -9 -17 -21 -20 -91 -20 -71 0 -81 2 -86 19 -3 11
-18 25 -34 31 -24 10 -33 10 -54 -4 -14 -9 -25 -23 -25 -31 0 -12 -17 -15 -85
-15 -81 0 -86 1 -94 24 -5 13 -19 26 -31 29 -27 7 -70 -8 -70 -24 0 -7 -2 -10
-4 -8 -3 3 7 47 23 99 23 80 31 97 54 108 31 15 45 57 28 84 -10 16 -9 28 5
64 18 48 29 55 37 24 3 -11 16 -24 29 -29 68 -25 112 75 46 107 -21 10 -33 10
-48 2 -26 -14 -25 -8 6 48 113 204 237 325 387 378 38 14 40 13 25 -3 -25 -30
-29 -54 -13 -79 18 -28 65 -32 90 -8 23 24 16 76 -13 90 -34 17 -34 20 0 22
18 2 34 4 36 6 4 5 139 -2 167 -8z m-3059 -124 c167 -219 466 -406 842 -523
34 -11 62 -22 62 -24 0 -3 -18 -24 -40 -47 -117 -123 -197 -313 -200 -470 l0
-28 -174 0 -173 0 -51 54 c-52 55 -122 156 -162 235 -48 95 -115 308 -134 426
-19 116 -28 209 -32 335 -5 140 -4 144 12 115 9 -16 32 -49 50 -73z m1514
-673 c260 -75 390 -372 269 -613 -77 -152 -224 -241 -394 -239 -187 2 -341
113 -409 297 -23 59 -26 181 -6 251 46 166 194 295 365 318 40 6 132 -2 175
-14z m1008 -473 c87 -91 160 -215 213 -358 71 -194 106 -386 115 -638 l5 -145
-38 60 c-51 81 -106 143 -193 216 -161 134 -391 255 -655 344 -44 14 -82 28
-84 30 -2 3 16 24 39 47 82 82 169 247 185 354 4 22 8 48 10 59 2 11 4 35 4
53 l1 32 174 0 173 0 51 -54z m-3478 -251 c0 -22 41 -44 71 -38 15 3 31 15 38
29 10 22 16 24 87 24 72 0 77 -2 105 -31 33 -35 61 -33 94 7 19 21 29 24 97
24 57 0 77 -4 81 -14 3 -8 17 -22 30 -31 30 -19 72 -7 82 24 6 19 14 21 91 21
65 0 84 -3 84 -14 0 -19 26 -38 56 -42 18 -2 31 6 46 27 21 27 26 29 96 29 69
0 76 -2 102 -30 15 -16 36 -30 45 -30 9 0 30 14 45 30 26 28 33 30 103 30 65
0 76 -3 82 -18 10 -34 84 -51 93 -23 2 6 7 11 11 11 4 0 -4 -42 -19 -92 -22
-77 -31 -95 -52 -106 -33 -16 -43 -45 -28 -81 9 -22 7 -36 -9 -74 -11 -26 -23
-47 -26 -47 -4 0 -3 4 0 10 3 5 -6 21 -20 35 -25 22 -30 23 -59 11 -27 -11
-31 -17 -31 -52 0 -33 4 -41 29 -53 23 -10 34 -11 48 -2 26 16 23 9 -23 -72
-84 -145 -157 -229 -262 -298 -56 -36 -153 -76 -163 -66 -3 2 6 7 19 11 47 11
43 87 -6 105 -63 24 -111 -77 -49 -104 12 -5 22 -13 22 -17 0 -13 -162 -16
-222 -4 -37 7 -37 7 -18 26 24 24 26 57 3 82 -37 41 -111 6 -101 -47 3 -14 2
-25 -2 -25 -11 0 -118 77 -162 117 -51 47 -172 185 -215 246 l-33 45 35 0 c44
0 65 17 65 52 0 68 -101 86 -115 20 -4 -16 -3 -35 1 -42 19 -34 -11 6 -41 53
-27 44 -31 55 -19 62 39 22 40 87 1 104 -23 10 -40 10 -69 -2 -21 -8 -47 38
-46 83 1 33 -25 72 -48 72 -8 0 -23 18 -34 40 l-20 40 65 0 c51 0 65 -3 65
-15z m1852 -226 c126 -120 296 -191 481 -198 15 -1 17 -16 17 -175 l0 -173
-54 -51 c-163 -154 -464 -278 -746 -308 -36 -3 -68 -8 -71 -10 -4 -2 -78 -6
-165 -9 -153 -6 -158 -5 -129 11 234 132 452 455 589 872 15 45 29 82 31 82 2
0 23 -18 47 -41z m928 -302 c60 -19 78 -29 88 -50 15 -31 57 -45 84 -28 16 10
28 9 64 -5 l45 -17 -25 -21 c-56 -47 -21 -118 50 -104 26 5 44 46 33 75 -11
29 -8 29 49 -3 213 -119 339 -253 387 -414 l8 -25 -20 24 c-33 40 -85 34 -102
-12 -25 -68 76 -109 107 -44 8 16 16 26 19 24 10 -11 9 -186 -2 -232 -7 -27
-13 -45 -14 -38 -2 20 -31 43 -56 43 -31 0 -55 -25 -55 -58 0 -41 15 -56 54
-56 20 0 36 -3 36 -6 0 -20 -87 -129 -164 -205 -85 -85 -245 -215 -263 -215
-4 0 -2 4 6 9 8 5 14 24 13 42 -2 59 -64 80 -101 33 -30 -38 -2 -94 48 -94 21
0 17 -5 -29 -34 -45 -28 -56 -32 -63 -20 -15 27 -47 37 -78 24 -32 -14 -42
-49 -24 -92 9 -21 -48 -53 -88 -49 -30 3 -67 -22 -67 -45 0 -8 -18 -23 -40
-34 l-40 -20 0 65 c0 49 3 65 14 65 7 0 20 7 27 16 24 29 20 55 -11 84 -28 26
-30 32 -30 105 0 68 2 77 19 82 30 8 45 61 26 90 -9 12 -22 23 -30 23 -12 0
-15 17 -15 84 0 77 2 85 21 91 44 14 42 96 -3 110 -16 6 -18 17 -18 91 0 65 3
84 14 84 16 0 31 17 40 48 6 17 0 29 -23 53 -29 29 -31 35 -31 104 0 65 3 76
20 85 32 17 44 58 25 86 -8 13 -22 24 -30 24 -12 0 -15 17 -15 84 0 74 2 85
19 91 27 8 46 58 31 84 -14 27 -6 27 90 -2z"/>
<path d="M3030 5690 c-11 -11 -20 -29 -20 -40 0 -27 35 -60 63 -60 29 0 57 29
57 58 0 28 -34 62 -60 62 -11 0 -29 -9 -40 -20z"/>
<path d="M2620 5562 c-43 -13 -51 -62 -16 -97 26 -26 46 -25 79 3 44 38 -5
112 -63 94z"/>
<path d="M2900 5557 c-19 -9 -26 -22 -28 -49 -3 -32 1 -39 25 -51 68 -35 122
47 62 95 -25 21 -27 21 -59 5z"/>
<path d="M2456 5404 c-26 -25 -17 -76 16 -92 54 -25 101 23 75 78 -15 31 -66
39 -91 14z"/>
<path d="M2743 5408 c-31 -40 -20 -82 23 -98 63 -25 107 65 50 102 -18 12 -63
9 -73 -4z"/>
<path d="M3026 5398 c-21 -30 -20 -54 4 -78 37 -37 100 -8 100 45 0 51 -75 74
-104 33z"/>
<path d="M2594 5254 c-37 -55 25 -117 80 -80 51 33 22 106 -41 106 -13 0 -30
-11 -39 -26z"/>
<path d="M2887 5262 c-22 -24 -21 -65 1 -85 40 -36 95 -11 95 43 0 54 -61 81
-96 42z"/>
<path d="M2472 5130 c-68 -28 -24 -135 45 -109 47 17 50 84 4 108 -23 13 -19
13 -49 1z"/>
<path d="M2745 5115 c-27 -27 -27 -55 0 -84 19 -19 66 -17 82 5 16 23 17 68 1
82 -31 24 -57 23 -83 -3z"/>
<path d="M3042 5128 c-26 -13 -39 -54 -25 -77 34 -54 112 -37 113 25 0 44 -46
71 -88 52z"/>
<path d="M2597 4972 c-23 -26 -21 -57 5 -82 38 -35 98 -7 98 45 0 48 -70 73
-103 37z"/>
<path d="M2880 4971 c-26 -50 6 -105 55 -96 11 2 23 4 27 4 3 1 11 15 17 33 9
25 8 36 -4 55 -20 30 -79 33 -95 4z"/>
<path d="M2462 4834 c-42 -29 -18 -104 34 -104 34 0 57 25 57 60 0 53 -46 76
-91 44z"/>
<path d="M2754 4842 c-59 -39 -18 -127 49 -106 28 8 37 22 37 55 0 43 -52 74
-86 51z"/>
<path d="M3026 4828 c-21 -30 -20 -54 4 -78 27 -27 65 -26 84 2 21 30 20 54
-4 78 -27 27 -65 26 -84 -2z"/>
<path d="M2602 4690 c-12 -11 -22 -31 -22 -44 0 -49 70 -75 103 -38 50 55 -27
132 -81 82z"/>
<path d="M2902 4699 c-32 -12 -43 -47 -25 -82 12 -24 19 -28 51 -25 27 2 40
10 51 30 14 25 14 29 -5 54 -22 30 -38 35 -72 23z"/>
<path d="M3033 4552 c-20 -12 -25 -65 -9 -85 34 -43 106 -19 106 36 0 43 -59
73 -97 49z"/>
<path d="M5053 4555 c-57 -24 -44 -99 19 -110 57 -10 84 76 34 108 -18 12 -27
13 -53 2z"/>
<path d="M5342 4559 c-26 -10 -43 -47 -35 -77 3 -11 18 -26 34 -32 72 -30 114
71 44 107 -12 7 -29 7 -43 2z"/>
<path d="M4747 4542 c-29 -32 -21 -69 20 -91 57 -30 113 49 65 92 -24 22 -65
21 -85 -1z"/>
<path d="M4607 4402 c-22 -24 -21 -65 1 -85 40 -36 95 -11 95 43 0 54 -61 81
-96 42z"/>
<path d="M4897 4408 c-43 -32 -17 -108 36 -108 43 0 73 59 49 97 -12 20 -65
26 -85 11z"/>
<path d="M5176 4398 c-9 -12 -16 -29 -16 -38 0 -30 30 -60 60 -60 53 0 78 62
40 100 -27 27 -65 26 -84 -2z"/>
<path d="M5461 4395 c-16 -22 -18 -31 -9 -56 19 -56 101 -49 110 10 9 63 -62
95 -101 46z"/>
<path d="M4750 4258 c-27 -30 -25 -62 6 -87 56 -44 129 39 74 86 -29 25 -57
25 -80 1z"/>
<path d="M5034 4255 c-21 -21 -22 -28 -13 -52 12 -33 26 -43 60 -43 46 0 71
54 41 90 -26 31 -60 33 -88 5z"/>
<path d="M5326 4259 c-45 -35 -19 -99 40 -99 36 0 54 21 54 63 0 47 -54 68
-94 36z"/>
<path d="M4627 4132 c-25 -5 -46 -52 -36 -79 20 -53 89 -51 109 3 18 45 -23
87 -73 76z"/>
<path d="M4886 4108 c-25 -38 -7 -84 36 -92 53 -9 85 43 58 95 -16 28 -75 26
-94 -3z"/>
<path d="M5177 4112 c-45 -49 8 -118 68 -90 33 15 42 51 21 83 -20 30 -65 34
-89 7z"/>
<path d="M5474 4122 c-56 -37 -14 -127 49 -103 43 16 55 52 31 89 -14 22 -57
30 -80 14z"/>
<path d="M4474 3982 c-26 -17 -35 -51 -22 -80 26 -54 108 -33 108 28 0 44 -51
75 -86 52z"/>
<path d="M4750 3970 c-11 -11 -20 -29 -20 -40 0 -25 34 -60 58 -60 29 0 62 29
62 56 0 29 -32 64 -60 64 -11 0 -29 -9 -40 -20z"/>
<path d="M5037 3972 c-35 -38 -12 -102 37 -102 36 0 59 24 59 60 0 54 -61 81
-96 42z"/>
<path d="M5321 3971 c-36 -36 -7 -101 44 -101 48 0 73 70 37 103 -25 23 -58
21 -81 -2z"/>
<path d="M5612 3974 c-40 -28 -16 -104 34 -104 29 0 64 32 64 60 0 25 -34 60
-58 60 -10 0 -28 -7 -40 -16z"/>
<path d="M1310 3110 c-11 -11 -20 -29 -20 -40 0 -27 35 -60 63 -60 50 0 76 70
39 103 -25 23 -58 21 -82 -3z"/>
<path d="M1597 3112 c-22 -24 -21 -65 1 -85 40 -36 95 -11 95 43 0 54 -61 81
-96 42z"/>
<path d="M1881 3108 c-35 -37 -7 -98 45 -98 24 0 53 23 55 43 7 66 -58 101
-100 55z"/>
<path d="M2166 3108 c-9 -12 -16 -30 -16 -40 0 -24 35 -58 60 -58 26 0 60 34
60 61 0 27 -36 59 -66 59 -13 0 -30 -10 -38 -22z"/>
<path d="M2457 3112 c-35 -38 -12 -102 37 -102 35 0 59 24 59 59 0 54 -62 81
-96 43z"/>
<path d="M1467 2979 c-51 -30 -35 -109 21 -109 62 0 88 65 42 102 -25 20 -37
22 -63 7z"/>
<path d="M1755 2977 c-53 -29 -44 -88 17 -110 23 -8 68 29 68 57 0 47 -45 75
-85 53z"/>
<path d="M2040 2977 c-31 -15 -39 -66 -15 -91 25 -25 72 -20 91 9 14 21 14 30
4 55 -7 17 -16 30 -20 30 -5 0 -14 2 -22 5 -7 3 -24 -1 -38 -8z"/>
<path d="M2311 2964 c-34 -43 -10 -94 43 -94 40 0 56 16 56 56 0 57 -64 82
-99 38z"/>
<path d="M1612 2835 c-27 -12 -32 -19 -32 -48 0 -19 7 -40 15 -47 42 -35 108
-4 99 47 -10 52 -35 67 -82 48z"/>
<path d="M2176 2829 c-43 -34 -26 -95 28 -105 52 -9 88 64 49 98 -31 26 -51
28 -77 7z"/>
<path d="M1880 2825 c-28 -34 -7 -92 36 -99 60 -10 91 72 40 106 -19 13 -63 9
-76 -7z"/>
<path d="M1458 2688 c-27 -22 -30 -62 -7 -86 38 -42 99 -19 99 37 0 49 -55 78
-92 49z"/>
<path d="M1739 2679 c-33 -33 -7 -99 41 -99 26 0 60 30 60 53 0 59 -60 87
-101 46z"/>
<path d="M2027 2682 c-22 -24 -21 -65 1 -85 40 -36 95 -11 95 43 0 54 -61 81
-96 42z"/>
<path d="M2311 2681 c-11 -11 -18 -28 -16 -38 2 -10 4 -21 4 -25 2 -16 34 -38
55 -38 49 0 75 70 38 103 -25 22 -58 21 -81 -2z"/>
<path d="M1600 2540 c-40 -40 -16 -100 40 -100 32 0 60 30 55 58 -2 9 -4 22
-4 28 -1 11 -43 34 -61 34 -6 0 -19 -9 -30 -20z"/>
<path d="M1885 2536 c-24 -24 -25 -55 -2 -83 10 -14 55 -17 73 -5 39 26 33 85
-11 102 -34 13 -32 14 -60 -14z"/>
<path d="M2190 2553 c-62 -22 -45 -113 21 -113 34 0 48 12 54 45 9 46 -32 83
-75 68z"/>
<path d="M3890 2540 c-40 -40 -14 -100 45 -100 31 0 54 24 55 56 0 50 -65 79
-100 44z"/>
<path d="M4053 2409 c-34 -12 -47 -45 -33 -80 7 -16 18 -29 24 -30 6 0 19 -2
28 -4 56 -11 82 82 31 109 -18 9 -36 11 -50 5z"/>
<path d="M4317 2392 c-44 -48 6 -116 68 -92 54 21 35 110 -24 110 -15 0 -35
-8 -44 -18z"/>
<path d="M3890 2250 c-45 -45 -1 -115 58 -94 37 13 50 55 28 88 -20 32 -58 34
-86 6z"/>
<path d="M4171 2244 c-21 -26 -19 -46 7 -76 41 -49 120 9 91 65 -24 45 -67 50
-98 11z"/>
<path d="M4467 2258 c-28 -23 -31 -63 -6 -87 28 -26 60 -27 82 -3 48 53 -19
133 -76 90z"/>
<path d="M4039 2117 c-45 -34 -24 -107 31 -107 36 0 60 23 60 59 0 45 -56 74
-91 48z"/>
<path d="M4319 2109 c-27 -27 -24 -64 7 -88 54 -43 121 27 79 83 -20 26 -62
29 -86 5z"/>
<path d="M3896 1969 c-43 -34 -29 -90 25 -103 52 -12 92 61 52 96 -31 26 -51
28 -77 7z"/>
<path d="M4193 1977 c-62 -27 -35 -122 32 -111 29 4 57 43 49 68 -13 44 -43
60 -81 43z"/>
<path d="M4478 1974 c-46 -24 -45 -79 2 -104 26 -14 68 3 79 32 19 51 -33 97
-81 72z"/>
<path d="M4035 1826 c-11 -8 -18 -26 -18 -46 0 -54 61 -81 96 -42 50 55 -19
132 -78 88z"/>
<path d="M4314 1815 c-21 -32 -11 -72 21 -87 36 -16 71 2 80 43 6 27 3 36 -15
51 -32 26 -66 23 -86 -7z"/>
<path d="M3890 1680 c-39 -39 -14 -100 42 -100 29 0 58 28 58 56 0 52 -64 80
-100 44z"/>
<path d="M4175 1676 c-22 -22 -23 -29 -14 -53 12 -33 26 -43 60 -43 29 0 43
12 53 47 5 17 1 29 -18 48 -31 31 -50 32 -81 1z"/>
<path d="M4464 1674 c-28 -28 -26 -57 7 -86 16 -14 26 -15 47 -7 32 12 42 26
42 60 0 52 -58 72 -96 33z"/>
<path d="M4035 1536 c-13 -13 -22 -32 -20 -42 2 -11 4 -24 4 -30 1 -13 43 -33
64 -30 26 4 47 28 47 55 0 34 -10 48 -43 60 -24 9 -31 8 -52 -13z"/>
<path d="M4310 1526 c-28 -53 19 -107 74 -86 28 10 40 40 30 73 -9 28 -22 37
-60 37 -22 0 -34 -7 -44 -24z"/>
<path d="M3887 1392 c-10 -10 -17 -28 -17 -40 0 -28 34 -62 60 -62 25 0 60 34
60 58 0 53 -68 82 -103 44z"/>
</g>
</svg>
